<svg width="383" height="279" viewBox="0 0 383 279" fill="none" xmlns="http://www.w3.org/2000/svg">
<path d="M49.4081 260.816C35.8243 259.785 22.6141 253.823 12.4396 244.147C5.63883 237.676 -0.0354088 228.87 0.000166378 219.129C0.0475999 206.169 10.228 195.509 21.363 190.419C30.8913 186.063 41.5638 184.629 51.8035 186.33C43.1232 179.658 36.0971 170.544 31.6383 160.15C29.1836 154.432 27.476 148.098 28.3239 141.87C29.575 132.709 33.7017 119.323 40.3127 113.355C59.553 95.9992 89.4301 90.1328 112.02 101.996C100.583 89.6469 92.9758 64.3384 99.9011 48.6117C106.826 32.8849 123.493 9.443 158.689 2.64626C193.885 -4.15048 234.322 10.96 238.935 31.1665C256.112 16.7849 284.684 2.71737 305.46 9.84002C326.236 16.9627 337.721 30.3132 345.453 52.2085C352.651 72.5928 343.454 96.1711 343.454 96.1711C343.454 96.1711 374.239 117.598 381.449 158.124C384.651 176.108 373.444 207.248 365.09 218.88C358.669 227.822 350.564 236.929 340.057 237.836C344.759 238.547 349.662 239.335 353.558 242.239C357.459 245.142 359.967 250.861 357.934 255.453C356.534 258.611 353.416 260.466 350.338 261.639C342.031 264.81 49.4081 260.816 49.4081 260.816Z" fill="url(#paint0_linear_2435_4093)"/>
<path d="M213.932 162.658C213.932 162.658 212.841 159.784 212.497 157.829C212.396 157.236 211.193 156.424 211.062 155.612C210.76 153.734 211.418 152.282 211.062 150.913C210.706 149.545 206.752 151.435 206.36 153.912C206.141 155.316 206.497 156.715 206.23 157.568C205.483 157.278 203.408 156.75 201.919 156.525C200.123 156.075 197.152 164.027 197.152 164.027C197.152 164.027 198.919 173.828 203.811 173.615C206.953 175.967 210.22 173.372 211.4 173.769C212.574 174.16 213.594 175.031 214.608 175.843C218.711 179.114 223.259 181.614 228.014 183.214C228.678 179.078 229.887 175.078 231.589 171.393L213.932 162.658Z" fill="#DCB65E"/>
<path d="M102.783 267.726L100.897 261.99L107.088 260.017V266.47L102.783 267.726Z" fill="#AF5C64"/>
<path d="M71.287 163.725C70.0716 163.322 67.2611 157.135 67.4746 155.879C67.688 154.623 68.441 153.539 69.0695 152.436C69.698 151.328 70.2376 150.06 69.9648 148.81C69.6921 147.56 68.2691 146.511 67.1188 147.062C65.9982 147.595 65.7729 149.213 64.6819 149.8C63.7273 150.315 62.5 149.8 61.7233 149.035C60.9465 148.271 60.4248 147.275 59.6421 146.511C59.4702 146.339 58.059 147.524 57.5313 148.952C57.0748 150.185 57.8159 151.103 57.3357 151.103C56.6894 151.109 55.3316 152.59 55.5747 154.333C55.7229 155.405 57.14 156.484 57.14 156.484C57.14 156.484 54.9877 159.221 56.7842 160.981C56.6538 165.977 59.6243 162.99 60.8991 164.163C62.1739 165.337 63.3538 166.622 64.4092 168.003L71.287 163.725Z" fill="#010101"/>
<path d="M212.165 176.358C212.005 176.808 214.862 167.173 216.173 161.982C222.161 167.363 229.579 168.234 237.138 170.249C239.807 170.96 240.631 172.406 242.629 173.425C245.481 174.877 248.226 173.934 251.44 174.61C263.268 177.105 256.017 195.575 258.899 203.859C257.659 199.972 246.032 197.957 242.558 196.671C240.275 195.83 239.291 193.691 237.269 192.76C235.2 191.812 234.174 192.932 232.158 192.855C223.91 192.547 223.94 181.288 212.165 176.358Z" fill="#745C98"/>
<path d="M277.872 226.827C277.872 226.827 288.942 232.226 301.014 219.26C313.086 206.295 318.706 199.131 318.706 199.131C318.706 199.131 320.977 215.509 319.833 221.619C319.477 223.509 314.935 222.638 314.935 222.638C314.935 222.638 316.376 234.489 312.279 236.984C308.182 239.479 306.984 236.214 306.984 236.214C306.984 236.214 304.227 247.467 301.856 247.662C299.478 247.864 295.6 244.279 295.6 244.279C295.6 244.279 295.328 252.207 285.699 253.137C272.145 254.441 261.199 237.251 261.199 237.251L277.872 226.827Z" fill="#DCB65E"/>
<path d="M288.361 267.767L290.299 262.031L283.938 260.058V266.511L288.361 267.767Z" fill="#AF5C64"/>
<path d="M245.825 266.476L243.945 260.74L250.135 258.767V265.22L245.825 266.476Z" fill="#AF5C64"/>
<path d="M262.379 237.262C262.93 239.615 263.476 241.967 264.027 244.32C264.246 245.268 264.472 246.234 264.371 247.2C264.229 248.616 263.41 249.872 263.019 251.241C262.509 253.025 262.735 254.921 262.622 256.77C262.509 258.618 261.922 260.627 260.345 261.599C261.092 264.473 261.839 267.353 262.586 270.227C258.282 271.08 253.835 271.205 249.489 270.594C245.967 270.102 244.034 271.679 242.237 270.873C242.872 267.329 245.243 266.002 248.338 264.147C249.133 263.667 246.767 261.534 247.022 260.639C247.135 260.242 247.093 259.815 247.105 259.401C247.153 257.789 248.143 256.236 249.584 255.507C248.534 254.986 248.149 253.629 248.333 252.474C248.516 251.318 249.127 250.281 249.59 249.203C251.339 245.167 250.989 240.29 248.676 236.551L262.379 237.262Z" fill="#454862"/>
<path d="M250.218 269.593C250.651 268.508 251.208 261.99 254.439 261.635C257.671 261.273 263.766 259.122 263.766 259.122L262.331 267.104C262.331 267.104 263.226 271.24 262.96 272.034C262.242 274.185 261.258 274.547 260.896 274.902C260.535 275.264 232.549 277.053 232.549 277.053C232.549 277.053 233.717 273.379 236.587 271.945C238.419 271.027 239.99 269.261 242.765 268.295C243.429 268.064 245.83 265.291 247.307 266.162L250.218 269.593Z" fill="#AF5C64"/>
<path d="M266.156 236.249C268.86 238.157 269.649 245.12 270.093 248.391C270.467 251.134 270.07 254.393 272.168 256.207C272.453 256.456 272.797 256.693 272.874 257.06C272.933 257.35 272.809 257.647 272.684 257.913C270.378 262.962 275.246 267.098 272.945 272.147C279.639 273.101 283.132 274.286 289.867 273.735C289.808 270.944 288.693 271.507 288.634 268.716C288.622 268.218 285.794 264.277 285.58 263.827C285.42 263.483 285.153 263.199 285.029 262.837C284.869 262.363 284.987 261.836 285.124 261.356C285.586 259.703 286.197 258.097 286.95 256.556C287.359 255.709 287.816 254.862 287.922 253.931C288.023 253.066 287.81 252.207 287.602 251.359C286.422 246.595 285.236 241.825 284.056 237.061C282.017 238.092 279.663 238.483 277.398 238.157C277.878 238.169 278.353 238.175 278.833 238.187" fill="#565870"/>
<path d="M282.74 270.902C282.295 269.818 282.835 263.282 279.514 262.92C276.2 262.559 269.933 260.408 269.933 260.408L271.409 268.39C271.409 268.39 270.49 272.526 270.763 273.32C271.498 275.471 272.512 275.832 272.879 276.188C273.247 276.549 301.992 278.339 301.992 278.339C301.992 278.339 300.794 274.665 297.847 273.231C295.968 272.312 293.863 270.641 291.011 269.675C290.329 269.444 286.73 266.369 285.372 267.21L282.74 270.902Z" fill="#AF5C64"/>
<path d="M249.572 237.843C249.572 237.843 250.628 240.746 250.717 241.896C250.806 243.04 250.717 244.183 250.717 244.183L263.02 251.235C263.02 251.235 264.188 248.888 264.372 247.193C264.555 245.505 263.5 238.459 263.5 238.459L249.572 237.843Z" fill="#31344B"/>
<path d="M270.092 248.391L285.437 243.307L284.82 239.342L267.815 238.288C267.815 238.288 268.871 241.28 269.316 243.046C269.748 244.806 270.092 248.391 270.092 248.391Z" fill="#31344B"/>
<path d="M98.4964 175.013C96.9192 174.628 85.4106 177.727 85.4106 177.727C85.4106 177.727 76.1967 165.817 72.7815 164.951C70.9908 163.097 69.9295 161.74 69.9295 161.74L60.4902 165.094C60.4902 165.094 61.4626 166.777 63.0161 169.147C63.9232 174.593 72.6332 185.745 76.8726 188.488C83.4184 192.725 97.4291 190.995 97.4291 190.995L98.4964 175.013Z" fill="#FE82B3"/>
<path d="M71.5244 183.054C71.5244 183.054 74.993 188.903 81.0052 190.266C87.0115 191.623 96.1128 191.777 96.1128 191.777L95.9764 188.121C95.9764 188.121 87.5925 188.772 83.537 188.387C77.003 187.759 71.5244 183.054 71.5244 183.054Z" fill="#E05C9D"/>
<path d="M85.4102 177.727C85.4102 177.727 89.0151 179.819 91.6832 181.905C94.3514 183.996 95.9522 185.875 95.9522 185.875L95.9167 189.727C95.9167 189.727 90.6101 183.836 89.4124 182.319C88.0724 180.631 85.4102 177.727 85.4102 177.727Z" fill="#E05C9D"/>
<path d="M85.5471 178.041C85.5471 178.041 84.7467 181.905 84.0767 183.267C83.4067 184.624 82.873 186.402 82.873 186.402C82.873 186.402 84.1182 185.999 85.2744 184.417C86.3416 182.953 86.478 181.176 86.478 181.176L85.5471 178.041Z" fill="#E05C9D"/>
<path d="M236.581 102.412C235.863 101.34 233.847 92.7532 233.847 92.7532C233.847 92.7532 230.687 95.0761 230.112 94.8983C229.537 94.7206 229.537 90.4304 230.397 89.1741C231.256 87.9238 241.466 83.8114 242.468 85.7787C243.476 87.7461 246.062 95.6153 246.062 96.6879C246.062 97.7604 245.344 100.267 245.344 100.267L236.581 102.412Z" fill="#DCB65E"/>
<path d="M273.247 102.376C273.354 101.618 277.178 90.774 277.178 90.774C277.178 90.774 274.113 91.1177 272.779 90.5429C271.439 89.9681 276.716 83.9595 277.836 83.5328C278.957 83.1121 293.294 85.8853 293.472 88.4156C293.65 90.9459 289.541 108.889 286.286 111.905C283.024 114.921 276.461 117.475 276.461 117.475L273.247 102.376Z" fill="#DCB65E"/>
<path d="M231.026 275.352L230.575 277.681C230.575 277.681 243.311 277.414 249.412 276.697C255.513 275.98 262.688 275.619 262.688 275.619L262.599 272.84L231.026 275.352Z" fill="#ECE7C9"/>
<path d="M230.758 275.264C230.758 275.264 233.088 272.485 237.215 271.679C241.341 270.873 241.881 274.908 241.881 274.908L238.294 277.421L230.758 275.264Z" fill="#ECE7C9"/>
<path d="M252.085 186.124C254.492 189.561 243.328 199.782 244.757 205.192C252.156 203.711 254.996 203.267 262.355 202.443C268.07 201.797 273.573 183.125 279.288 182.42C279.081 179.066 276.199 161.722 278.363 156.78C286.125 139.056 287.216 130.612 287.216 130.612C287.216 130.612 278.387 93.4225 275.387 92.427C272.387 91.4256 256.728 92.427 256.728 92.427C256.728 92.427 212.751 118.731 204.42 121.398C196.09 124.064 189.426 124.396 190.76 126.061C192.094 127.726 198.42 141.711 211.417 142.043C224.414 142.374 240.476 133.972 240.476 133.972C240.476 133.972 245.593 176.856 252.085 186.124Z" fill="#DCB65E"/>
<path d="M248.991 128.68C250.876 127.738 271.421 107.952 271.421 107.952C271.421 107.952 263.162 124.443 258.715 135.264C257.09 139.21 255.97 143.08 255.946 144.158C255.857 148.205 255.715 155.251 249.536 152.11C243.358 148.97 248.991 128.68 248.991 128.68Z" fill="url(#paint1_linear_2435_4093)"/>
<path d="M258.311 110.72C260.728 110.72 262.687 108.762 262.687 106.347C262.687 103.932 260.728 101.974 258.311 101.974C255.895 101.974 253.936 103.932 253.936 106.347C253.936 108.762 255.895 110.72 258.311 110.72Z" fill="#231F20"/>
<path d="M260.221 105.908C260.866 105.908 261.389 105.386 261.389 104.741C261.389 104.096 260.866 103.574 260.221 103.574C259.576 103.574 259.053 104.096 259.053 104.741C259.053 105.386 259.576 105.908 260.221 105.908Z" fill="white"/>
<path d="M241.691 93.0967L240.689 94.7618L246.352 96.0951V93.4285L241.691 93.0967Z" fill="#83604F"/>
<path d="M240.673 187.605C240.673 187.605 255.999 175.054 261.822 171.618C265.089 169.692 271.937 168.192 275.305 166.687C277.938 165.508 277.552 164.08 277.552 164.08C277.552 164.08 294.687 168.963 294.166 174.995C293.644 181.027 297.101 182.39 297.101 182.39C297.101 182.39 302.467 194.639 296.431 195.913C290.395 197.187 278.329 189.537 278.329 189.537C278.329 189.537 238.912 187.279 240.673 187.605Z" fill="#745C98"/>
<path d="M240.986 109.054C243.403 109.054 245.362 107.096 245.362 104.681C245.362 102.266 243.403 100.308 240.986 100.308C238.569 100.308 236.61 102.266 236.61 104.681C236.61 107.096 238.569 109.054 240.986 109.054Z" fill="#231F20"/>
<path d="M242.896 104.243C243.541 104.243 244.064 103.72 244.064 103.076C244.064 102.431 243.541 101.908 242.896 101.908C242.25 101.908 241.728 102.431 241.728 103.076C241.728 103.72 242.25 104.243 242.896 104.243Z" fill="white"/>
<path d="M241.609 271.768L239.012 270.689L239.996 270.15L242.866 271.228L241.609 271.768Z" fill="#ECE7C9"/>
<path d="M241.97 268.988L241.253 269.433L243.945 270.333L244.751 269.616L241.97 268.988Z" fill="#ECE7C9"/>
<path d="M244.034 267.371L243.803 267.578L243.139 268.182L245.825 269.166L246.364 268.449" fill="#ECE7C9"/>
<path d="M252.465 265.67C252.465 265.67 253.36 266.749 253.722 268.088C254.084 269.433 253.9 270.867 253.9 271.584C253.9 272.301 255.601 275.975 255.874 276.158C256.141 276.336 259.823 277.681 259.823 277.681L260.718 277.32C260.718 277.32 256.953 276.241 256.681 276.064C256.414 275.886 254.706 272.745 254.617 271.939C254.528 271.134 254.795 268.71 254.795 268.265C254.795 267.815 253.093 265.309 253.093 265.309L252.465 265.67Z" fill="#ECE7C9"/>
<path d="M303.563 276.644L304.025 278.973C304.025 278.973 290.945 278.706 284.678 277.989C278.411 277.272 271.041 276.911 271.041 276.911L271.136 274.132L303.563 276.644Z" fill="#ECE7C9"/>
<path d="M303.842 276.555C303.842 276.555 301.446 273.776 297.207 272.97C292.967 272.164 292.416 276.2 292.416 276.2L296.104 278.712L303.842 276.555Z" fill="#ECE7C9"/>
<path d="M292.695 273.053L295.363 271.981L294.349 271.441L291.402 272.52L292.695 273.053Z" fill="#ECE7C9"/>
<path d="M292.322 270.274L293.063 270.725L290.3 271.62L289.47 270.903L292.322 270.274Z" fill="#ECE7C9"/>
<path d="M290.204 268.663L290.441 268.87L291.123 269.468L288.36 270.458L287.809 269.741" fill="#ECE7C9"/>
<path d="M281.542 266.962C281.542 266.962 280.623 268.04 280.25 269.379C279.882 270.724 280.066 272.158 280.066 272.875C280.066 273.592 278.317 277.266 278.038 277.45C277.759 277.634 273.982 278.973 273.982 278.973L273.063 278.611C273.063 278.611 276.935 277.533 277.208 277.355C277.487 277.177 279.236 274.037 279.325 273.231C279.414 272.425 279.141 270.001 279.141 269.557C279.141 269.113 280.89 266.6 280.89 266.6L281.542 266.962Z" fill="#ECE7C9"/>
<path d="M280.646 182.325C282.247 184.625 283.813 197.584 285.941 204.476C288.07 211.367 290.868 221.731 290.868 221.731L291.651 239.603L246.382 238.388C246.382 238.388 240.263 230.827 240.008 223.408C239.616 211.954 243.423 184.79 243.423 184.79L246.097 177.111L250.443 181.336L280.646 182.325Z" fill="#745C98"/>
<path d="M259.498 113.25C263.601 113.25 266.927 109.925 266.927 105.825C266.927 101.724 263.601 98.3999 259.498 98.3999C255.395 98.3999 252.068 101.724 252.068 105.825C252.068 109.925 255.395 113.25 259.498 113.25Z" fill="white" stroke="#C69F53" stroke-miterlimit="10"/>
<path d="M260.025 111.946C262.923 111.946 265.272 109.599 265.272 106.702C265.272 103.806 262.923 101.458 260.025 101.458C257.127 101.458 254.777 103.806 254.777 106.702C254.777 109.599 257.127 111.946 260.025 111.946Z" fill="#231F20"/>
<path d="M262.319 106.175C263.092 106.175 263.719 105.549 263.719 104.776C263.719 104.004 263.092 103.378 262.319 103.378C261.546 103.378 260.92 104.004 260.92 104.776C260.92 105.549 261.546 106.175 262.319 106.175Z" fill="white"/>
<path d="M240.263 112.847C244.163 112.847 247.324 109.687 247.324 105.789C247.324 101.892 244.163 98.7319 240.263 98.7319C236.363 98.7319 233.201 101.892 233.201 105.789C233.201 109.687 236.363 112.847 240.263 112.847Z" fill="white" stroke="#C69F53" stroke-miterlimit="10"/>
<path d="M240.506 111.537C243.263 111.537 245.498 109.304 245.498 106.548C245.498 103.792 243.263 101.559 240.506 101.559C237.749 101.559 235.514 103.792 235.514 106.548C235.514 109.304 237.749 111.537 240.506 111.537Z" fill="#231F20"/>
<path d="M242.688 106.038C243.421 106.038 244.016 105.444 244.016 104.711C244.016 103.978 243.421 103.384 242.688 103.384C241.954 103.384 241.359 103.978 241.359 104.711C241.359 105.444 241.954 106.038 242.688 106.038Z" fill="white"/>
<path d="M198.954 131.418C203.669 131.418 207.492 128.945 207.492 125.895C207.492 122.845 203.669 120.373 198.954 120.373C194.239 120.373 190.416 122.845 190.416 125.895C190.416 128.945 194.239 131.418 198.954 131.418Z" fill="#7A5533"/>
<path d="M202.452 126.073C204.148 126.073 205.524 125.184 205.524 124.088C205.524 122.992 204.148 122.103 202.452 122.103C200.756 122.103 199.381 122.992 199.381 124.088C199.381 125.184 200.756 126.073 202.452 126.073Z" fill="#927458"/>
<path d="M283.261 189.721C283.611 191.131 281.85 209.447 281.145 216.842C280.439 224.238 275.506 233.049 275.506 233.049L284.062 237.055C284.062 237.055 293.483 223.183 294.539 215.788C295.594 208.392 293.127 191.131 293.127 191.131L283.261 189.721Z" fill="#745C98"/>
<path d="M101.799 160.454L106.803 169.745L110.621 189.525L127.549 189.288L134.706 160.454H101.799Z" fill="#010101"/>
<path d="M132.678 219.58C132.678 219.58 137.362 225.245 140.949 225.879C144.537 226.513 152.173 223.426 155.523 219.254C158.868 215.077 160.753 211.628 162.905 210.348C165.058 209.068 166.712 210.123 166.712 210.123C166.712 210.123 167.643 214.378 162.615 220.137C157.587 225.897 155.772 228.724 150.371 230.916C144.454 233.322 138.827 232.83 135.222 231.183C131.617 229.535 128.818 225.079 128.818 225.079L132.678 219.58Z" fill="#010101"/>
<path d="M117.772 218.36C118.33 220.748 119.687 243.496 120.245 245.884C120.47 246.844 120.695 247.822 120.595 248.806C120.446 250.246 119.622 251.514 119.225 252.906C118.709 254.714 118.94 256.639 118.822 258.512C118.703 260.384 118.11 262.429 116.509 263.412C117.268 266.334 118.027 269.249 118.786 272.171C114.416 273.036 109.904 273.166 105.493 272.544C101.918 272.04 99.955 273.646 98.1348 272.828C98.781 269.231 101.188 267.886 104.325 266.008C105.131 265.522 102.73 263.353 102.991 262.447C103.103 262.044 103.062 261.611 103.074 261.19C103.121 259.555 104.123 257.979 105.588 257.244C104.521 256.716 104.135 255.342 104.319 254.162C104.503 252.989 105.125 251.934 105.594 250.844C107.367 246.749 105.09 221.091 102.748 217.293L117.772 218.36Z" fill="#4A5A89"/>
<path d="M136.134 221.459C135.648 221.447 141.121 248.225 141.02 249.102C140.913 250.05 140.717 256.823 140.302 257.682C139.543 259.246 142.129 261.498 141.654 263.169C141.518 263.661 141.393 264.188 141.553 264.674C141.678 265.036 141.951 265.332 142.111 265.676C142.324 266.132 142.342 266.659 142.354 267.163C142.419 269.996 142.478 272.828 142.544 275.661C135.707 276.218 135.506 275.133 128.717 274.167C131.053 269.048 126.695 264.799 129.031 259.673C129.155 259.401 129.286 259.098 129.221 258.808C129.144 258.435 128.794 258.192 128.503 257.937C126.375 256.1 126.772 252.793 126.392 250.008C125.942 246.684 121.341 221.933 121.341 221.933L136.134 221.459Z" fill="#4A5A89"/>
<path d="M168.235 140.419C165.015 142.173 160.153 144.016 158.238 144.644C162.329 143.311 163.468 139.981 165.857 136.402C163.153 138.298 159.56 138.861 156.4 137.889C156.845 137.806 156.299 131.91 155.89 128.106C155.481 124.302 150.157 115.863 150.157 115.863C150.157 115.863 150.406 103.271 149.113 94.2466C143.362 100.877 141.192 104.575 137.385 112.48C123.481 108.806 119.082 108.99 105.065 112.219C104.697 112.302 101.288 93.3755 101.288 93.3755C101.288 93.3755 95.1989 100.208 93.3312 104.403C91.2441 109.09 89.6847 114.56 89.6847 114.56C89.6847 114.56 83.9512 120.811 81.8641 126.02C79.9431 130.82 78.4786 136.817 80.9214 143.797C82.0242 146.949 83.133 152.549 87.5977 156.496C92.4537 160.786 100.458 163.429 103.583 164.525C111.872 167.423 120.813 167.689 129.588 167.926C132.849 168.015 132.494 166.984 135.642 166.149C139.063 165.242 144.429 162.534 148.075 161.876C149.493 161.621 150.732 160.733 151.965 159.992C155.131 158.09 157.876 155.577 160.604 153.083C158.861 154.339 156.548 154.777 154.467 154.25C159.323 151.447 168.235 140.419 168.235 140.419Z" fill="#010101"/>
<path d="M131.693 140.733C136.31 140.733 140.053 136.993 140.053 132.378C140.053 127.764 136.31 124.023 131.693 124.023C127.076 124.023 123.333 127.764 123.333 132.378C123.333 136.993 127.076 140.733 131.693 140.733Z" fill="white" stroke="#4E5042" stroke-miterlimit="10"/>
<path d="M100.559 139.886C105.177 139.886 108.92 136.145 108.92 131.53C108.92 126.916 105.177 123.175 100.559 123.175C95.9422 123.175 92.1992 126.916 92.1992 131.53C92.1992 136.145 95.9422 139.886 100.559 139.886Z" fill="white" stroke="#4E5042" stroke-miterlimit="10"/>
<path d="M134.427 130.274C135.868 132.289 135.453 135.056 133.496 136.455C131.539 137.853 128.788 137.35 127.348 135.335C125.907 133.32 126.322 130.553 128.278 129.155C130.229 127.756 132.986 128.26 134.427 130.274Z" fill="#010101"/>
<path d="M133.746 130.873C134.084 131.347 133.977 132.011 133.503 132.348C133.028 132.686 132.364 132.579 132.026 132.105C131.688 131.631 131.795 130.968 132.269 130.63C132.744 130.286 133.402 130.393 133.746 130.873Z" fill="white"/>
<path d="M105.457 132.461C105.457 134.938 103.506 136.947 101.105 136.947C98.7036 136.947 96.7529 134.938 96.7529 132.461C96.7529 129.984 98.7036 127.975 101.105 127.975C103.506 127.975 105.457 129.984 105.457 132.461Z" fill="#010101"/>
<path d="M104.087 131.151C104.087 131.738 103.613 132.212 103.026 132.212C102.439 132.212 101.965 131.738 101.965 131.151C101.965 130.564 102.439 130.09 103.026 130.09C103.613 130.09 104.087 130.564 104.087 131.151Z" fill="white"/>
<path d="M96.4918 195.723C97.2211 203.32 95.9997 209.275 97.9267 216.659C98.3121 218.128 99.2904 220.303 100.34 221.393C101.508 222.608 101.65 222.632 103.293 222.999C110.437 224.623 119.224 224.824 126.393 223.307C129.66 222.614 132.921 221.927 136.188 221.233C137.261 221.008 138.429 220.724 139.093 219.853C139.686 219.082 139.739 218.034 139.739 217.056C139.722 211.841 138.346 206.336 139.235 201.193C139.775 198.058 140.439 192.381 141.145 189.276C143.048 180.886 142.141 174.64 137.036 167.707C136.603 167.114 136.117 166.522 135.447 166.226C134.64 165.87 133.697 166.018 132.856 166.273C128.936 167.452 123.274 168.039 120.641 171.168C117.57 174.818 114.588 178.314 114.683 183.084C113.598 175.843 104.265 166.599 104.265 166.599C104.265 166.599 102.368 169.574 100.5 171.049C98.8161 172.382 96.0886 176.056 96.0886 176.056C96.0886 176.056 95.8337 189.033 96.4918 195.723Z" fill="#FE82B3"/>
<path d="M102.272 222.685C102.272 222.685 103.998 226.638 103.998 227.378C103.998 228.119 103.998 228.119 103.998 228.119C103.998 228.119 115.833 228.368 119.775 228.368C123.718 228.368 136.786 226.146 136.786 226.146C136.786 226.146 136.786 223.924 137.278 222.685C137.474 222.199 138.63 220.149 138.63 220.149L102.272 222.685Z" fill="#ED69B3"/>
<path d="M125.883 175.463C128.984 173.792 137.326 173.946 137.326 173.946L147.613 184.275C147.613 184.275 151.817 181.839 151.337 176.595C151.117 174.207 141.862 163.902 141.862 163.902C141.862 163.902 129.405 165.342 123.855 166.699C117.688 168.204 112.886 175.457 112.886 175.457C112.886 175.457 110.485 173.052 109.079 171.191C107.674 169.33 103.915 164.536 103.915 164.536C103.915 164.536 101.389 164.424 100.612 166.166C100.18 167.138 100.85 169.858 100.85 169.858C100.85 169.858 102.522 173.194 104.662 174.865C106.802 176.536 111.575 182.136 111.575 182.136L114.196 185.472L118.009 181.419C118.015 181.425 122.782 177.134 125.883 175.463Z" fill="#FE82B3"/>
<path d="M114.677 183.09C114.677 183.09 116.349 178.326 122.07 174.99C127.792 171.654 133.514 169.982 136.615 169.508C139.716 169.034 144.358 171.571 146.256 172.945C148.153 174.32 150.975 177.911 150.904 179.831C150.786 183.286 147.803 184.222 147.803 184.222L138.518 174.391C138.518 174.391 130.65 178.8 126.594 180.708C122.539 182.616 114.677 183.09 114.677 183.09Z" fill="#E05C9D"/>
<path d="M100.577 167.985C100.577 167.985 102.154 171.061 104.3 172.489C106.447 173.917 111.332 181.905 111.332 181.905C111.332 181.905 106.447 179.997 104.656 177.496C103.156 175.398 99.207 169.704 99.207 169.704L100.577 167.985Z" fill="#E05C9D"/>
<path d="M115.447 183.149C115.447 183.149 122.693 179.215 126.001 178.77C127.549 178.563 138.518 174.391 138.518 174.391C138.518 174.391 128.859 180.02 127.43 180.826C126.001 181.632 119.384 182.883 118.578 183.06C117.772 183.238 115.447 183.149 115.447 183.149Z" fill="#C3456E"/>
<path d="M100.156 170.373C100.156 170.373 103.702 177.342 106.204 177.851C107.574 178.13 109.216 179.848 109.661 180.47C110.105 181.093 112.4 182.497 112.4 182.497C112.4 182.497 106.791 180.346 105.961 179.635C102.931 177.045 100.156 170.373 100.156 170.373Z" fill="#C3456E"/>
<path d="M120.399 178.918C120.399 178.918 119.444 187.498 121.353 192.026C123.263 196.553 122.308 206.68 122.308 206.68L122.545 209.18" stroke="white" stroke-width="2" stroke-miterlimit="10" stroke-linecap="round"/>
<path d="M107.23 179.76C107.354 182.059 107.431 184.524 106.21 186.474C105.807 187.114 105.279 187.671 104.888 188.322C104.158 189.525 103.939 190.953 103.731 192.346C103.471 194.094 103.21 195.86 103.346 197.626C103.554 200.405 104.698 203.385 103.37 205.845" stroke="white" stroke-width="2" stroke-miterlimit="10" stroke-linecap="round"/>
<path d="M133.075 188.867C133.075 189.584 134.64 196.292 135.832 197.246C136.526 197.803 139.164 199.883 139.164 199.883L139.722 196.458C139.722 196.458 138.133 196.665 136.639 195.291C135.144 193.916 133.075 188.867 133.075 188.867Z" fill="#E05C9D"/>
<path d="M103.85 113.7C107.146 112.515 112.85 110.192 114.783 107.348C117.516 103.33 114.024 97.0254 113.591 92.0952C114.19 93.227 118.175 97.1913 118.258 98.4712C118.744 94.5425 118.827 94.3588 119.313 90.4301C119.621 93.1144 119.959 95.1292 120.268 97.8194C122.882 94.1396 130.572 88.4154 134.812 86.8569C130.478 89.5235 126.796 95.4906 124.614 100.101C126.867 97.8965 131.711 95.1944 131.711 95.1944C131.711 95.1944 123.606 102.341 123.659 104.942C123.754 109.529 129.487 111.988 134 112.859L103.85 113.7Z" fill="#010101"/>
<path d="M115.981 101.369L124.407 103.028C124.407 103.028 126.191 103.508 126.126 104.521C126.061 105.534 125.515 105.683 124.08 105.683C122.646 105.683 114.54 105.209 114.54 105.209C114.54 105.209 111.718 103.431 113.147 101.997C114.576 100.563 115.981 101.369 115.981 101.369Z" fill="#C3456E"/>
<path d="M113.497 105.552C113.841 104.35 114.547 104.249 119.077 104.729C123.607 105.203 125.747 105.12 125.036 106.702C124.52 107.852 120.666 106.986 117.802 106.986C114.938 106.986 113.153 106.761 113.497 105.552Z" fill="#C3456E"/>
<path d="M76.5161 137.184C75.2888 135.957 74.4349 134.612 74.4349 134.612C74.4349 134.612 74.4349 137.302 75.0457 139.139C75.6564 140.976 77.6189 143.542 77.6189 143.542C77.6189 143.542 75.9054 142.315 75.1702 141.337C74.4349 140.36 71.583 138.167 71.583 138.167C71.583 138.167 73.8065 145.011 75.2769 147.465C76.7473 149.912 79.8424 152.027 79.8424 152.027L75.2769 150.244C75.2769 150.244 76.6465 152.65 78.8463 154.605C81.0519 156.56 90.7343 159.091 90.7343 159.091L81.8701 139.554C81.8761 139.566 77.7375 138.41 76.5161 137.184Z" fill="#010101"/>
<path d="M99.7295 112.083L99.9192 115.312L108.558 113.126L107.325 109.961L99.7295 112.083Z" fill="#4E5042"/>
<path d="M128.729 107.958L126.838 112.332L135.228 114.572L136.01 111.36L128.729 107.958Z" fill="#4E5042"/>
<path d="M136.692 226.999L123.256 232.16L122.568 228.119L136.792 226.146L136.692 226.999Z" fill="#343958"/>
<path d="M119.212 235.177L105.516 230.531L105.172 228.202L118.69 228.463L119.212 235.177Z" fill="#343958"/>
<path d="M251.161 181.804C251.161 181.804 263.612 176.399 269.257 174.995C274.902 173.591 288.053 176.168 289.701 176.992C291.343 177.816 294.047 175.937 294.047 175.937C294.047 175.937 294.284 178.758 295.458 180.162C296.632 181.573 297.338 182.509 297.338 182.509C297.338 182.509 291.231 187.913 287.466 185.092C283.706 182.272 276.627 177.697 270.722 178.047C266.144 178.319 251.161 181.804 251.161 181.804Z" fill="#574574"/>
<path d="M294.07 180.163C297.948 181.105 298.268 185.448 298.268 185.448C298.268 185.448 299.798 193.081 298.505 194.372C297.213 195.664 296.276 196.132 295.333 196.251C294.39 196.369 293.453 195.664 293.453 195.664C293.453 195.664 293.276 193.377 291.953 190.734C290.631 188.091 285.876 184.044 285.876 184.044C285.876 184.044 290.192 179.226 294.07 180.163Z" fill="#574574"/>
<path d="M246.809 170.771C245.623 171.565 240.583 172.999 240.814 175.938C241.052 178.871 243.281 179.576 244.105 181.81C244.929 184.044 248.451 182.634 248.451 182.634L250.331 180.287L246.809 170.771Z" fill="#745C98"/>
<path d="M242.932 172.886C242.932 172.886 243.756 175.114 245.517 177.111C247.278 179.108 250.331 180.281 250.331 180.281L245.647 166.308L242.932 172.886Z" fill="#574574"/>
<path d="M277.765 159.523C277.765 159.523 283.048 160.513 285.075 161.218C287.103 161.923 289.22 168.797 289.22 168.797C289.22 168.797 289.22 170.207 288.87 170.385C288.52 170.563 281.731 169.33 278.737 169.153C275.743 168.975 269.132 168.803 269.132 168.803C269.132 168.803 276.093 166.516 276.798 165.982C277.504 165.449 277.765 159.523 277.765 159.523Z" fill="#574574"/>
<path opacity="0.47" d="M240.494 133.824L248.754 128.894L247.479 135.844L241.277 140.413L240.494 133.824Z" fill="url(#paint2_linear_2435_4093)"/>
<path opacity="0.47" d="M251.006 98.2402C251.006 98.2402 249.002 102.762 248.765 105.813C248.528 108.865 248.848 117.054 248.848 117.054C248.848 117.054 251.89 103.781 255.015 100.32C259.835 94.9811 268.486 92.042 268.486 92.042L259.26 92.3324C259.266 92.3324 253.005 96.1248 251.006 98.2402Z" fill="url(#paint3_linear_2435_4093)"/>
<path d="M250.87 91.3844C247.236 93.725 245.943 99.3959 244.615 103.893C243.222 108.634 241.894 112.142 241.894 112.142C241.894 112.142 243.809 108.45 246.572 104.824C249.489 101.002 252.264 98.2285 254.89 96.1486C260.007 92.1073 268.225 91.7933 268.225 91.7933C268.225 91.7933 258.341 86.5787 250.87 91.3844Z" fill="#C74F18"/>
<path d="M250.805 80.3385C246.779 80.3681 240.192 88.1011 234.66 88.0182C240.317 90.1158 247.147 91.0699 253.005 91.9469C256.569 92.4802 268.83 92.2669 268.83 92.2669C268.83 92.2669 268.883 89.4759 267.656 86.7027C264.514 79.6037 256.8 80.2911 250.805 80.3385Z" fill="#E87C24"/>
<path d="M236.694 74.4189C243.252 75.7463 244.746 75.93 253 76.2085C261.324 76.487 265.409 79.6276 266.975 82.0216C268.546 84.4096 268.86 92.99 268.831 92.2552C268.801 91.5204 266.595 85.2274 260.37 81.7964C256.433 79.6276 249.744 79.7757 246.928 79.4024C244.112 79.0291 236.694 74.4189 236.694 74.4189Z" fill="#ED9335"/>
<path d="M263.155 86.1577L261.649 88.6761L270.205 90.6908V86.6614L263.155 86.1577Z" fill="#6A5442"/>
<path opacity="0.47" d="M277.172 90.7738C277.172 90.7738 283.35 89.6302 284.874 89.3931C286.398 89.1561 290.044 88.3384 290.044 88.3384C290.044 88.3384 285.342 91.6271 281.702 92.6819C278.061 93.7367 276.413 92.9189 276.413 92.9189L277.172 90.7738Z" fill="url(#paint4_linear_2435_4093)"/>
<path opacity="0.47" d="M233.854 92.7528L239.878 89.7485L241.757 90.0981L243.287 90.3352C243.287 90.3352 242.937 91.627 240.352 93.2684C237.767 94.9098 234.832 96.5571 234.832 96.5571L233.854 92.7528Z" fill="url(#paint5_linear_2435_4093)"/>
<path d="M144.234 267.767L146.167 262.031L139.811 260.058V266.511L144.234 267.767Z" fill="#AF5C64"/>
<path d="M106.085 269.593C106.518 268.508 107.075 261.99 110.307 261.635C113.538 261.273 119.633 259.122 119.633 259.122L118.198 267.104C118.198 267.104 119.094 271.24 118.827 272.034C118.109 274.185 117.125 274.547 116.763 274.902C116.402 275.264 88.416 277.053 88.416 277.053C88.416 277.053 89.5841 273.379 92.4538 271.945C94.2859 271.027 95.8572 269.261 98.632 268.295C99.2961 268.064 101.697 265.291 103.174 266.162L106.085 269.593Z" fill="#AF5C64"/>
<path d="M138.613 270.902C138.168 269.818 138.708 263.282 135.387 262.92C132.073 262.559 125.806 260.408 125.806 260.408L127.282 268.39C127.282 268.39 126.363 272.526 126.636 273.32C127.371 275.471 128.385 275.832 128.752 276.188C129.12 276.549 157.865 278.339 157.865 278.339C157.865 278.339 156.667 274.665 153.72 273.231C151.841 272.312 149.736 270.641 146.884 269.675C146.202 269.444 142.603 266.369 141.245 267.21L138.613 270.902Z" fill="#AF5C64"/>
<path d="M86.893 275.352L86.4424 277.681C86.4424 277.681 99.1783 277.414 105.279 276.697C111.381 275.98 118.555 275.619 118.555 275.619L118.466 272.84L86.893 275.352Z" fill="#ECE7C9"/>
<path d="M86.626 275.264C86.626 275.264 88.9561 272.485 93.0829 271.679C97.2096 270.873 97.7491 274.908 97.7491 274.908L94.162 277.421L86.626 275.264Z" fill="#ECE7C9"/>
<path d="M97.4818 271.768L94.8789 270.689L95.8631 270.15L98.7388 271.228L97.4818 271.768Z" fill="#ECE7C9"/>
<path d="M97.8375 268.988L97.1201 269.433L99.812 270.333L100.618 269.616L97.8375 268.988Z" fill="#ECE7C9"/>
<path d="M99.9012 267.371L99.6759 267.578L99.0059 268.182L101.698 269.166L102.237 268.449" fill="#ECE7C9"/>
<path d="M108.333 265.67C108.333 265.67 109.228 266.749 109.59 268.088C109.952 269.433 109.768 270.867 109.768 271.584C109.768 272.301 111.47 275.975 111.742 276.158C112.009 276.336 115.691 277.681 115.691 277.681L116.586 277.32C116.586 277.32 112.821 276.241 112.549 276.064C112.282 275.886 110.574 272.745 110.485 271.939C110.396 271.134 110.663 268.71 110.663 268.265C110.663 267.815 108.961 265.309 108.961 265.309L108.333 265.67Z" fill="#ECE7C9"/>
<path d="M159.437 276.644L159.899 278.973C159.899 278.973 146.819 278.706 140.552 277.989C134.285 277.272 126.915 276.911 126.915 276.911L127.01 274.132L159.437 276.644Z" fill="#ECE7C9"/>
<path d="M159.709 276.555C159.709 276.555 157.313 273.776 153.074 272.97C148.835 272.164 148.283 276.2 148.283 276.2L151.971 278.712L159.709 276.555Z" fill="#ECE7C9"/>
<path d="M148.562 273.053L151.236 271.981L150.222 271.441L147.27 272.52L148.562 273.053Z" fill="#ECE7C9"/>
<path d="M148.195 270.274L148.93 270.725L146.167 271.62L145.337 270.903L148.195 270.274Z" fill="#ECE7C9"/>
<path d="M146.072 268.663L146.309 268.87L146.997 269.468L144.234 270.458L143.677 269.741" fill="#ECE7C9"/>
<path d="M137.415 266.962C137.415 266.962 136.496 268.04 136.123 269.379C135.755 270.724 135.939 272.158 135.939 272.875C135.939 273.592 134.19 277.266 133.911 277.45C133.632 277.634 129.856 278.973 129.856 278.973L128.937 278.611C128.937 278.611 132.808 277.533 133.081 277.355C133.36 277.177 135.109 274.037 135.198 273.231C135.293 272.425 135.014 270.001 135.014 269.557C135.014 269.113 136.763 266.6 136.763 266.6L137.415 266.962Z" fill="#ECE7C9"/>
<path d="M95.7266 146.872L100.268 149.237C100.268 149.237 112.061 145.397 114.647 145.284C117.807 145.148 126.001 147.945 126.001 147.945C126.001 147.945 126.867 148.591 129.677 148.158C132.488 147.726 132.488 147.726 132.488 147.726L137.895 144.496C137.895 144.496 130.347 149.651 125.556 154.647C120.748 159.666 118.69 164.537 116.23 164.572C109.654 164.667 108.854 157.367 105.611 154.789C102.361 152.217 95.7266 146.872 95.7266 146.872Z" fill="#640D24"/>
<path d="M114.19 156.626C114.19 156.626 109.761 154.931 110.805 153.242C111.848 151.548 113.283 150.896 114.19 151.808C115.103 152.721 113.087 152.916 114.06 154.155C115.133 155.518 117.06 154.807 116.93 153.764C116.799 152.721 116.538 152.199 117.19 151.939C117.843 151.678 120.446 151.939 120.446 153.242C120.446 154.546 119.924 155.85 118.358 156.365C116.793 156.881 114.19 156.626 114.19 156.626Z" fill="#010101"/>
<path d="M115.365 156.768C115.365 156.768 113.93 155.583 112.756 155.583C111.582 155.583 110.278 157.657 111.191 159.441C112.104 161.224 115.359 162.706 117.055 161.366C118.75 160.033 119.794 158.101 119.011 156.62C118.234 155.139 115.365 156.768 115.365 156.768Z" fill="#9A3F66"/>
<path d="M111.262 161.834C111.262 161.834 112.762 163.268 114.843 163.268C116.93 163.268 119.337 161.769 119.337 161.769C119.337 161.769 118.816 163.529 116.598 164.181C114.38 164.833 112.987 163.962 112.43 163.399C111.653 162.616 111.262 161.834 111.262 161.834Z" fill="#CFCAC6"/>
<path d="M109.762 148.94C109.762 148.94 112.892 150.007 114.843 150.007C116.8 150.007 119.598 149.071 119.598 149.071L114.843 146.203L109.762 148.94Z" fill="#CFCAC6"/>
<path d="M108.522 150.765C108.522 150.765 108.457 151.222 108.783 151.939C109.109 152.656 109.5 152.851 109.5 152.851L109.435 150.7L108.522 150.765Z" fill="#CFCAC6"/>
<path d="M122.651 151.417C122.651 151.417 122.722 151.874 122.367 152.591C122.011 153.308 121.584 153.503 121.584 153.503L121.655 151.352L122.651 151.417Z" fill="#CFCAC6"/>
<path d="M103.375 141.782C103.375 141.782 100.15 148.081 105.789 150.564C112.139 153.36 114.777 146.522 114.973 146.795C114.949 146.694 116.817 152.442 123.41 151.814C130.14 151.174 129.114 143.287 128.871 143.334" fill="black"/>
<path d="M103.375 141.782C103.375 141.782 100.15 148.081 105.789 150.564C112.139 153.36 114.777 146.522 114.973 146.795C114.949 146.694 116.817 152.442 123.41 151.814C130.14 151.174 129.114 143.287 128.871 143.334" stroke="#594B49" stroke-miterlimit="10" stroke-linecap="round" stroke-linejoin="round"/>
<path d="M120.233 140.206H110.669L114.908 146.534L120.233 140.206Z" fill="#B04659"/>
<path d="M313.66 151.4C315.083 151.068 315.391 148.686 315.172 146.789C314.953 144.893 314.526 142.742 315.386 141.308C316.05 140.2 317.443 139.969 318.439 140.799C319.435 141.634 319.904 143.418 319.465 144.715C321.605 142.908 324.113 141.764 326.734 141.391C327.398 142.493 327.872 143.773 328.121 145.101C328.287 147.394 326.592 147.655 324.831 147.281C327.689 148.632 328.94 150.659 328.94 150.659C328.94 150.659 328.187 154.635 325.679 154.179C326.592 154.748 327.244 156.134 326.722 157.307C326.2 158.481 325.003 158.611 323.52 158.344C323.811 159.215 324.113 160.134 324.018 161.029C323.924 161.924 323.265 162.718 322.572 162.433C322.174 162.267 321.878 161.817 321.534 161.497C320.645 160.685 319.447 160.839 318.587 161.497C317.728 162.149 317.117 163.209 316.494 164.211C313.974 168.258 310.891 171.701 307.411 174.356C305.81 170.682 303.8 167.274 301.47 164.276L313.66 151.4Z" fill="#DCB65E"/>
<path d="M318.783 164.951C318.985 165.378 319.204 165.781 319.453 166.16C316.957 161.988 315.16 156.258 313.275 151.322C309.711 157.414 304.292 159.257 298.962 162.237C297.076 163.292 296.715 164.821 295.387 166.089C293.495 167.896 291.272 167.333 288.977 168.424C284.75 170.438 279.977 176.945 276.822 181.762C271.225 190.307 287.768 193.744 287.768 193.744C287.768 193.744 297.088 190.704 299.484 188.974C301.049 187.842 301.417 185.602 302.78 184.423C304.168 183.214 305.134 184.18 306.634 183.842C312.771 182.45 310.797 171.369 318.783 164.951Z" fill="#745C98"/>
<path d="M285.686 186.971C285.686 186.971 287.512 192.701 290.115 194.266C292.718 195.83 293.127 191.131 293.127 191.131C293.127 191.131 297.645 189.418 299.483 188.98C301.321 188.541 300.847 184.488 302.78 184.429C304.713 184.37 307.322 184.63 308.62 183.072C309.925 181.508 311.229 178.645 312.267 175.777C313.31 172.909 314.615 169.004 314.615 169.004C314.615 169.004 311.745 169.787 309.142 174.474C306.533 179.161 305.235 179.422 302.365 180.465C299.495 181.508 297.675 184.63 295.849 185.413C294.023 186.195 293.791 181.312 294.034 175.937C294.278 170.563 294.283 170.563 294.283 170.563C294.283 170.563 291.159 184.37 289.593 183.848C288.028 183.327 291.348 177.176 289.688 176.992C288.028 176.809 286.202 180.459 285.68 182.023C285.17 183.587 285.686 186.971 285.686 186.971Z" fill="#574574"/>
<path d="M219.227 180.198C219.227 180.98 224.438 191.137 228.091 192.441C231.737 193.744 237.311 192.287 237.263 192.755C237.216 193.223 243.471 198.432 243.471 198.432C243.471 198.432 239.7 189.543 240.672 187.605C241.645 185.668 238.52 175.25 237.998 174.468C237.477 173.686 239.825 187.232 237.998 187.754C236.172 188.275 232.004 175.25 231.482 175.25C230.96 175.25 232.265 184.625 233.048 187.232C233.83 189.839 228.097 184.364 226.27 182.545C224.444 180.72 218.195 175.001 216.76 175.387C215.325 175.772 212.171 176.358 212.171 176.358L219.227 180.198Z" fill="#574574"/>
<path d="M300.284 173.425C300.023 171.861 298.742 167.096 301.47 164.27C304.197 161.443 304.197 161.443 304.197 161.443C304.197 161.443 302.893 164.827 302.632 168.738C302.371 172.643 302.632 174.729 301.849 175.25C301.066 175.772 300.284 173.425 300.284 173.425Z" fill="#574574"/>
<path d="M167.843 157.698C169.124 157.402 170.417 153.485 170.215 151.779C170.156 151.263 170.541 149.539 170.452 148.828C170.245 147.192 169.539 146.481 169.539 146.481C169.539 146.481 171.514 145.598 172.409 146.351C173.31 147.103 174.366 149.74 174.757 150.398C175.237 149.989 175.54 149.485 176.583 148.964C177.805 148.188 179.073 147.986 180.241 148.573C182.329 149.616 181.285 152.229 181.285 152.229C181.285 152.229 182.732 151.755 182.85 153.141C183.07 155.737 183.153 159.932 181.676 159.666C182.5 160.181 183.502 162.273 179.85 163.185C178.071 165.852 174.069 164.459 173.292 165.052C172.516 165.645 171.401 167.499 171.401 167.499L164.962 161.882L167.843 157.698Z" fill="#010101"/>
<path d="M173.477 168.157C173.655 168.542 173.856 168.904 174.082 169.247C171.835 165.485 170.21 160.317 168.508 155.861C165.295 161.354 160.403 163.02 155.6 165.71C153.905 166.664 153.573 168.045 152.375 169.182C150.667 170.812 148.663 170.302 146.594 171.286C142.782 173.099 138.477 178.971 135.631 183.315C130.585 191.024 145.503 194.123 145.503 194.123C145.503 194.123 153.911 191.38 156.069 189.821C157.486 188.802 157.812 186.781 159.039 185.715C160.29 184.625 161.162 185.496 162.52 185.187C168.058 183.949 166.273 173.946 173.477 168.157Z" fill="#FE82B3"/>
<path d="M143.623 188.026C143.623 188.026 145.272 193.193 147.619 194.603C149.967 196.013 150.335 191.771 150.335 191.771C150.335 191.771 154.408 190.224 156.069 189.827C157.729 189.43 157.296 185.774 159.039 185.721C160.782 185.667 163.136 185.904 164.31 184.494C165.484 183.084 166.664 180.5 167.601 177.916C168.538 175.333 169.718 171.807 169.718 171.807C169.718 171.807 167.132 172.512 164.779 176.743C162.425 180.974 161.251 181.205 158.666 182.147C156.08 183.09 154.432 185.904 152.79 186.609C151.141 187.315 150.934 182.912 151.153 178.065C151.379 173.217 151.379 173.217 151.379 173.217C151.379 173.217 148.556 185.673 147.145 185.199C145.734 184.725 148.728 179.179 147.234 179.019C145.734 178.859 144.092 182.147 143.623 183.558C143.155 184.968 143.623 188.026 143.623 188.026Z" fill="#E05C9D"/>
<path d="M156.792 175.807C156.555 174.397 155.398 170.101 157.859 167.547C160.32 164.993 160.32 164.999 160.32 164.999C160.32 164.999 159.146 168.05 158.909 171.576C158.671 175.102 158.909 176.98 158.203 177.448C157.497 177.922 156.792 175.807 156.792 175.807Z" fill="#E05C9D"/>
<path d="M247.954 195.03L251.523 195.208L251.132 203.113L254.09 203.261L253.948 206.07L247.42 205.744L247.954 195.03ZM253.106 204.742L253.124 204.357L249.525 204.18L249.91 196.423L249.495 196.405L249.092 204.547L253.106 204.742Z" fill="#9D96C3"/>
<path d="M254.049 200.713C254.084 199.943 254.268 199.22 254.6 198.55C254.926 197.881 255.359 197.3 255.893 196.82C256.426 196.334 257.043 195.967 257.743 195.706C258.442 195.445 259.177 195.333 259.954 195.374C260.725 195.41 261.448 195.593 262.118 195.925C262.788 196.257 263.369 196.684 263.85 197.217C264.336 197.75 264.703 198.367 264.964 199.066C265.225 199.765 265.338 200.5 265.296 201.27C265.261 202.04 265.077 202.763 264.745 203.433C264.419 204.103 263.986 204.683 263.452 205.163C262.919 205.649 262.302 206.023 261.602 206.277C260.903 206.538 260.168 206.651 259.397 206.609C258.626 206.574 257.903 206.39 257.233 206.058C256.563 205.732 255.982 205.3 255.501 204.766C255.015 204.233 254.647 203.617 254.387 202.917C254.12 202.218 254.013 201.483 254.049 200.713ZM255.561 200.79C255.531 201.359 255.614 201.898 255.804 202.408C255.993 202.918 256.266 203.368 256.622 203.759C256.978 204.15 257.399 204.47 257.891 204.707C258.377 204.944 258.905 205.08 259.474 205.11C260.043 205.14 260.577 205.057 261.087 204.867C261.596 204.677 262.047 204.405 262.438 204.049C262.83 203.694 263.15 203.273 263.387 202.787C263.624 202.301 263.761 201.774 263.784 201.205C263.814 200.636 263.731 200.097 263.541 199.587C263.352 199.078 263.079 198.627 262.723 198.236C262.367 197.845 261.946 197.525 261.454 197.288C260.968 197.051 260.44 196.915 259.871 196.885C259.302 196.856 258.762 196.939 258.252 197.128C257.743 197.318 257.292 197.59 256.901 197.946C256.509 198.301 256.189 198.722 255.952 199.208C255.721 199.694 255.59 200.221 255.561 200.79ZM259.492 204.689C258.976 204.666 258.501 204.547 258.069 204.328C257.636 204.114 257.256 203.83 256.936 203.475C256.616 203.119 256.367 202.716 256.201 202.26C256.029 201.803 255.958 201.323 255.982 200.808C256.005 200.292 256.13 199.818 256.343 199.386C256.557 198.953 256.841 198.574 257.197 198.254C257.553 197.934 257.956 197.685 258.413 197.519C258.869 197.347 259.349 197.276 259.865 197.3C260.381 197.324 260.855 197.448 261.288 197.661C261.721 197.875 262.1 198.159 262.421 198.515C262.741 198.87 262.99 199.273 263.162 199.729C263.334 200.186 263.405 200.666 263.381 201.181C263.357 201.697 263.233 202.171 263.02 202.603C262.806 203.036 262.521 203.415 262.166 203.735C261.81 204.055 261.407 204.304 260.95 204.47C260.488 204.642 260.007 204.713 259.492 204.689ZM257.422 200.879C257.405 201.193 257.452 201.483 257.553 201.762C257.66 202.04 257.808 202.289 257.997 202.503C258.193 202.716 258.424 202.888 258.691 203.018C258.958 203.149 259.249 203.226 259.557 203.237C259.865 203.255 260.162 203.208 260.44 203.107C260.719 203 260.968 202.852 261.181 202.663C261.395 202.467 261.567 202.236 261.697 201.969C261.828 201.703 261.905 201.412 261.917 201.104C261.934 200.796 261.887 200.5 261.786 200.221C261.68 199.943 261.531 199.694 261.342 199.481C261.146 199.267 260.915 199.095 260.648 198.965C260.381 198.835 260.09 198.758 259.782 198.746C259.468 198.728 259.177 198.775 258.899 198.876C258.62 198.983 258.371 199.131 258.158 199.321C257.944 199.51 257.772 199.747 257.642 200.008C257.511 200.281 257.44 200.571 257.422 200.879Z" fill="#9D96C3"/>
<path d="M266.453 195.949L270.022 196.127L269.631 204.031L272.589 204.179L272.447 206.988L265.919 206.662L266.453 195.949ZM271.611 205.661L271.629 205.276L268.03 205.098L268.415 197.341L268 197.323L267.597 205.465L271.611 205.661Z" fill="#9D96C3"/>
<path d="M260.28 184.038C260.28 184.038 264.259 188.014 261.608 195.972C258.952 203.931 254.689 209.732 257.814 215.782" stroke="#45C4D2" stroke-width="2" stroke-miterlimit="10" stroke-linecap="round" stroke-linejoin="round"/>
<path d="M105.569 193.78H107.573V198.218H109.234V199.794H105.569V193.78ZM108.73 199.077V198.858H106.708V194.503H106.471V199.071H108.73V199.077Z" fill="white"/>
<path d="M109.145 196.796C109.145 196.364 109.228 195.955 109.394 195.569C109.56 195.184 109.785 194.852 110.069 194.562C110.354 194.278 110.692 194.052 111.077 193.887C111.463 193.721 111.872 193.638 112.305 193.638C112.738 193.638 113.147 193.721 113.532 193.887C113.918 194.052 114.25 194.278 114.54 194.562C114.825 194.847 115.05 195.184 115.216 195.569C115.382 195.955 115.465 196.364 115.465 196.796C115.465 197.229 115.382 197.638 115.216 198.023C115.05 198.408 114.825 198.74 114.54 199.03C114.255 199.314 113.918 199.54 113.532 199.706C113.147 199.871 112.738 199.954 112.305 199.954C111.872 199.954 111.463 199.871 111.077 199.706C110.692 199.54 110.36 199.314 110.069 199.03C109.785 198.746 109.56 198.408 109.394 198.023C109.228 197.638 109.145 197.229 109.145 196.796ZM109.992 196.796C109.992 197.116 110.052 197.412 110.17 197.691C110.289 197.969 110.455 198.218 110.668 198.426C110.876 198.639 111.125 198.799 111.404 198.923C111.682 199.042 111.985 199.101 112.299 199.101C112.613 199.101 112.915 199.042 113.194 198.923C113.473 198.805 113.722 198.639 113.929 198.426C114.143 198.218 114.303 197.969 114.427 197.691C114.552 197.412 114.605 197.11 114.605 196.796C114.605 196.476 114.546 196.18 114.427 195.901C114.309 195.623 114.143 195.38 113.929 195.167C113.722 194.953 113.473 194.793 113.194 194.669C112.915 194.55 112.613 194.491 112.299 194.491C111.985 194.491 111.682 194.55 111.404 194.669C111.125 194.787 110.876 194.953 110.668 195.167C110.455 195.38 110.295 195.623 110.17 195.901C110.052 196.174 109.992 196.476 109.992 196.796ZM112.299 198.864C112.008 198.864 111.742 198.811 111.492 198.704C111.243 198.597 111.024 198.449 110.834 198.26C110.645 198.07 110.496 197.851 110.39 197.602C110.283 197.353 110.23 197.081 110.23 196.796C110.23 196.512 110.283 196.239 110.39 195.99C110.496 195.741 110.645 195.522 110.834 195.332C111.024 195.143 111.243 194.995 111.492 194.888C111.742 194.781 112.008 194.728 112.299 194.728C112.589 194.728 112.856 194.781 113.105 194.888C113.354 194.995 113.574 195.143 113.763 195.332C113.953 195.522 114.101 195.741 114.208 195.99C114.315 196.239 114.368 196.512 114.368 196.796C114.368 197.081 114.315 197.353 114.208 197.602C114.101 197.851 113.953 198.07 113.763 198.26C113.574 198.449 113.354 198.597 113.105 198.704C112.856 198.811 112.589 198.864 112.299 198.864ZM111.036 196.796C111.036 196.968 111.072 197.134 111.137 197.288C111.202 197.442 111.291 197.572 111.409 197.691C111.522 197.803 111.659 197.892 111.813 197.963C111.967 198.035 112.127 198.064 112.305 198.064C112.483 198.064 112.643 198.029 112.797 197.963C112.951 197.898 113.082 197.809 113.2 197.691C113.313 197.578 113.402 197.442 113.473 197.288C113.538 197.134 113.574 196.974 113.574 196.796C113.574 196.624 113.538 196.458 113.473 196.304C113.408 196.15 113.319 196.02 113.2 195.901C113.087 195.789 112.951 195.694 112.797 195.629C112.643 195.564 112.477 195.528 112.305 195.528C112.133 195.528 111.967 195.564 111.813 195.629C111.659 195.694 111.528 195.783 111.409 195.901C111.297 196.014 111.208 196.15 111.137 196.304C111.072 196.452 111.036 196.618 111.036 196.796Z" fill="white"/>
<path d="M117.108 193.78L118.128 196.393L119.153 193.78H121.258L118.91 199.794H117.351L115.003 193.78H117.108ZM118.228 199.077L120.013 194.509H119.758L118.128 198.668L116.503 194.509H116.248L118.033 199.077H118.228Z" fill="white"/>
<path d="M121.395 193.78H124.94V195.362H123.316V196.032H124.911V197.525H123.316V198.218H125.005V199.794H121.395V193.78ZM124.335 199.077V198.858H122.533V196.885H124.246V196.666H122.533V194.716H124.335V194.497H122.296V199.065H124.335V199.077Z" fill="white"/>
<path d="M53.79 45.4723L59.488 44.7612L69.4609 190.71L64.1187 189.999L53.79 45.4723Z" fill="#BA9E78"/>
<path d="M320.124 32.7262L326.349 32.5366L322.294 191.161L316.596 189.845L320.124 32.7262Z" fill="#BA9E78"/>
<path d="M57.727 97.292L62.8142 96.5039L62.2272 91.6152L56.9443 91.2241L57.727 97.292Z" fill="#6D6246"/>
<path d="M319.347 71.4561L319.151 81.6304L324.832 82.2171V73.4115L319.347 71.4561Z" fill="#6D6246"/>
<path d="M43.3252 32.1276L48.1278 92.5931L335.154 74.8813L336.779 15.0913L43.3252 32.1276Z" fill="#8A8372"/>
<path d="M41.3682 30.9543L46.1708 91.4198L333.191 73.7079L334.816 13.918L41.3682 30.9543Z" fill="#FFFFA6"/>
<path d="M80.5571 74.3326L78.7629 47.0074L88.1507 46.391C89.6595 46.292 91.0805 46.353 92.4139 46.5741C93.7454 46.7673 94.923 47.181 95.9468 47.8153C96.9687 48.4217 97.7967 49.2793 98.4307 50.3881C99.0908 51.4672 99.475 52.8309 99.5832 54.4794C99.6878 56.0719 99.4852 57.4742 98.9755 58.6862C98.4938 59.8964 97.7887 60.9108 96.8604 61.7293C95.932 62.5479 94.8371 63.181 93.5757 63.6286C92.3144 64.0762 90.9572 64.3477 89.5044 64.4431L86.1097 64.666L86.7178 73.9281L80.5571 74.3326ZM85.7877 59.7626L88.8052 59.5644C92.158 59.3443 93.739 57.7814 93.5482 54.8756C93.4546 53.4507 92.9416 52.4742 92.009 51.9462C91.0764 51.4181 89.7719 51.2092 88.0955 51.3192L85.2456 51.5064L85.7877 59.7626Z" fill="black"/>
<path d="M105.02 72.7264L103.655 51.9391L108.684 51.6089L109.343 55.2276L109.51 55.2166C110.171 53.7421 111.01 52.6347 112.028 51.8945C113.046 51.1542 114.086 50.7492 115.147 50.6795C115.734 50.641 116.212 50.6517 116.58 50.7117C116.975 50.7419 117.331 50.8167 117.647 50.9362L116.991 56.3248C116.593 56.2387 116.224 56.1788 115.885 56.1449C115.546 56.111 115.153 56.1088 114.706 56.1381C113.924 56.1895 113.118 56.523 112.288 57.1387C111.487 57.7525 110.853 58.7902 110.388 60.2519L111.181 72.3219L105.02 72.7264Z" fill="black"/>
<path d="M130.269 71.5736C128.201 71.7094 126.293 71.2735 124.543 70.266L122.887 72.6055L120.466 70.9967L122.276 68.4366C121.491 67.5902 120.835 66.581 120.31 65.4089C119.81 64.2071 119.51 62.8518 119.411 61.343C119.298 59.6108 119.476 58.0557 119.947 56.6779C120.416 55.2722 121.081 54.078 121.942 53.0955C122.832 52.1111 123.876 51.3411 125.074 50.7854C126.27 50.2017 127.525 49.8668 128.838 49.7806C129.816 49.7164 130.789 49.7928 131.757 50.0098C132.726 50.2268 133.632 50.5742 134.477 51.0518L136.173 48.6676L138.596 50.3184L136.786 52.8785C137.573 53.7528 138.216 54.7909 138.716 55.9927C139.242 57.1648 139.555 58.5052 139.654 60.0139C139.767 61.7462 139.59 63.3152 139.121 64.721C138.65 66.0988 137.97 67.2799 137.081 68.2642C136.219 69.2468 135.19 70.0299 133.994 70.6135C132.824 71.1674 131.582 71.4874 130.269 71.5736ZM125.34 60.617C125.414 61.7346 125.573 62.6642 125.818 63.4057L131.551 55.2005C130.901 54.71 130.102 54.4959 129.152 54.5583C127.866 54.6427 126.881 55.2405 126.197 56.3517C125.51 57.435 125.225 58.8568 125.34 60.617ZM129.955 66.7959C131.212 66.7134 132.184 66.1305 132.871 65.0471C133.556 63.9359 133.84 62.5002 133.724 60.74C133.649 59.5944 133.489 58.6509 133.244 57.9094L127.469 66.1173C128.149 66.6339 128.977 66.8601 129.955 66.7959Z" fill="black"/>
<path d="M149.006 69.8383L140.642 49.5106L146.845 49.1033L150.171 58.7341C150.518 59.7495 150.854 60.7938 151.177 61.867C151.526 62.9103 151.876 63.9677 152.227 65.039L152.394 65.028C152.574 63.9218 152.755 62.8296 152.937 61.7514C153.145 60.6434 153.354 59.5633 153.566 58.5112L155.646 48.5255L161.555 48.1375L156.131 69.3705L149.006 69.8383Z" fill="black"/>
<path d="M182.554 76.5166C181.325 76.5974 180.172 76.5608 179.096 76.407C178.049 76.2793 177.107 76.0325 176.269 75.6666C175.459 75.2989 174.809 74.7944 174.318 74.1532C173.827 73.512 173.551 72.7304 173.49 71.8084C173.38 70.132 174.281 68.6699 176.191 67.422L176.18 67.2544C175.597 66.9279 175.106 66.4971 174.706 65.9622C174.306 65.4272 174.078 64.7267 174.021 63.8605C173.971 63.1062 174.148 62.379 174.551 61.6791C174.952 60.9513 175.473 60.3278 176.112 59.8088L176.101 59.6412C175.341 59.186 174.638 58.5166 173.991 57.6331C173.37 56.7199 173.019 55.6486 172.938 54.4192C172.855 53.1619 173.021 52.0567 173.436 51.1035C173.848 50.1223 174.426 49.2987 175.168 48.6327C175.936 47.9369 176.827 47.4014 177.84 47.0261C178.854 46.6509 179.919 46.4266 181.037 46.3533C182.266 46.2725 183.353 46.3695 184.297 46.6443L191.883 46.1462L192.177 50.6306L188.866 50.848C189.082 51.1425 189.261 51.5235 189.404 51.9912C189.575 52.457 189.679 52.9693 189.716 53.5281C189.795 54.7295 189.654 55.791 189.293 56.7126C188.931 57.6062 188.392 58.3712 187.676 59.0074C186.987 59.6139 186.148 60.0899 185.16 60.4354C184.201 60.779 183.148 60.9884 182.003 61.0636C181.193 61.1168 180.345 61.0321 179.461 60.8096C179.196 61.0515 179.015 61.2878 178.918 61.5187C178.821 61.7495 178.784 62.0466 178.808 62.4098C178.843 62.9406 179.092 63.3171 179.556 63.5392C180.047 63.7595 180.88 63.8311 182.053 63.7541L185.406 63.5339C187.976 63.3652 189.96 63.6558 191.356 64.406C192.778 65.1263 193.551 66.4225 193.674 68.2945C193.745 69.3841 193.531 70.3943 193.031 71.3251C192.56 72.282 191.843 73.1147 190.88 73.8234C189.918 74.56 188.737 75.1567 187.335 75.6135C185.936 76.0982 184.343 76.3992 182.554 76.5166ZM181.758 57.3336C182.568 57.2804 183.22 56.957 183.714 56.3633C184.235 55.7399 184.456 54.8415 184.379 53.668C184.308 52.5783 183.974 51.7724 183.379 51.2503C182.809 50.6985 182.12 50.4491 181.309 50.5023C180.499 50.5555 179.833 50.8799 179.311 51.4754C178.817 52.069 178.606 52.9246 178.68 54.0422C178.757 55.2157 179.08 56.0784 179.649 56.6303C180.245 57.1524 180.948 57.3868 181.758 57.3336ZM183.265 72.5977C184.662 72.5059 185.791 72.1793 186.652 71.6176C187.515 71.084 187.923 70.4539 187.875 69.7275C187.833 69.0848 187.525 68.6701 186.952 68.4833C186.406 68.2946 185.616 68.2342 184.583 68.3021L182.445 68.4425C181.719 68.4901 181.13 68.5007 180.679 68.4742C180.231 68.4756 179.836 68.4454 179.495 68.3836C178.785 69.1037 178.452 69.813 178.498 70.5115C178.55 71.2938 179.007 71.853 179.871 72.1891C180.737 72.5532 181.868 72.6894 183.265 72.5977Z" fill="black"/>
<path d="M196.943 66.6908L195.578 45.9036L200.607 45.5734L201.266 49.192L201.434 49.181C202.094 47.7065 202.934 46.5992 203.951 45.8589C204.969 45.1186 206.009 44.7136 207.07 44.6439C207.657 44.6054 208.135 44.6161 208.504 44.6761C208.898 44.7063 209.254 44.7812 209.571 44.9007L208.914 50.2893C208.516 50.2032 208.147 50.1432 207.808 50.1093C207.469 50.0755 207.076 50.0732 206.629 50.1026C205.847 50.1539 205.041 50.4875 204.211 51.1031C203.41 51.717 202.777 52.7547 202.311 54.2163L203.104 66.2863L196.943 66.6908Z" fill="black"/>
<path d="M217.726 65.8313C216.776 65.8937 215.899 65.7829 215.095 65.499C214.32 65.2412 213.649 64.8503 213.082 64.3264C212.512 63.7745 212.049 63.1314 211.692 62.3972C211.363 61.6612 211.17 60.8462 211.111 59.9521C210.968 57.7728 211.778 56.0079 213.541 54.6575C215.305 53.3071 218.226 52.2875 222.306 51.5987C222.189 50.6803 221.862 49.9723 221.324 49.4744C220.813 48.9468 219.984 48.7206 218.839 48.7958C217.945 48.8545 217.061 49.0809 216.189 49.4748C215.345 49.867 214.44 50.3895 213.472 51.0422L210.984 47.1228C212.272 46.2245 213.626 45.4762 215.046 44.8779C216.494 44.2778 218.042 43.9236 219.69 43.8153C222.372 43.6392 224.462 44.2736 225.96 45.7186C227.484 47.1338 228.352 49.4479 228.563 52.661L229.344 64.5634L224.315 64.8936L223.756 62.7837L223.588 62.7947C222.745 63.6358 221.852 64.3398 220.907 64.9069C219.96 65.4461 218.9 65.7543 217.726 65.8313ZM219.508 60.916C220.207 60.8701 220.797 60.677 221.28 60.3367C221.763 59.9963 222.265 59.5284 222.787 58.9329L222.548 55.2867C220.389 55.7372 218.909 56.2833 218.11 56.925C217.31 57.5668 216.937 58.2928 216.99 59.1031C217.034 59.7736 217.277 60.2628 217.718 60.5706C218.185 60.8486 218.782 60.9637 219.508 60.916Z" fill="black"/>
<path d="M241.857 64.2469C240.571 64.3313 239.455 64.2082 238.507 63.8776C237.587 63.5451 236.811 63.0489 236.179 62.389C235.574 61.7271 235.1 60.9165 234.756 59.9569C234.439 58.9676 234.241 57.8722 234.162 56.6708L233.609 48.247L230.759 48.4341L230.459 43.8659L233.627 43.4053L233.977 37.8264L239.09 37.4907L239.453 43.0228L244.44 42.6954L244.757 47.515L239.769 47.8424L240.317 56.1825C240.394 57.356 240.687 58.1925 241.197 58.6922C241.733 59.1621 242.406 59.3704 243.217 59.3172C243.552 59.2952 243.884 59.2313 244.214 59.1255C244.572 59.0178 244.887 58.8989 245.159 58.7688L246.417 63.1899C245.869 63.3942 245.224 63.6049 244.48 63.8221C243.737 64.0393 242.862 64.1809 241.857 64.2469Z" fill="black"/>
<path d="M249.862 63.2162L248.497 42.429L254.658 42.0245L256.023 62.8117L249.862 63.2162ZM251.356 39.1687C250.322 39.2365 249.451 38.9991 248.742 38.4564C248.031 37.8858 247.644 37.1255 247.582 36.1755C247.519 35.2256 247.804 34.4352 248.436 33.8044C249.068 33.1737 249.901 32.8244 250.935 32.7565C251.997 32.6868 252.868 32.9242 253.549 33.4687C254.258 34.0114 254.644 34.7578 254.706 35.7077C254.769 36.6577 254.485 37.462 253.855 38.1207C253.251 38.7496 252.418 39.099 251.356 39.1687Z" fill="black"/>
<path d="M267.597 62.5569C266.228 62.6468 264.799 62.474 263.312 62.0385C261.852 61.6012 260.563 60.9844 259.444 60.1879L261.957 56.1506C262.955 56.8147 263.898 57.2999 264.788 57.6062C265.678 57.9126 266.57 58.0364 267.464 57.9777C268.386 57.9172 269.047 57.7195 269.446 57.3846C269.845 57.0498 270.026 56.6029 269.989 56.0441C269.967 55.7089 269.822 55.4237 269.554 55.1888C269.312 54.9241 268.974 54.6937 268.541 54.4977C268.135 54.2999 267.675 54.1336 267.161 53.999C266.645 53.8365 266.115 53.6609 265.569 53.4722C264.91 53.2629 264.248 53.0118 263.583 52.7187C262.919 52.4256 262.306 52.059 261.743 51.6189C261.18 51.1508 260.709 50.6065 260.331 49.9859C259.952 49.3373 259.734 48.58 259.677 47.7138C259.615 46.7639 259.739 45.8719 260.049 45.0378C260.387 44.2018 260.886 43.4815 261.548 42.8769C262.21 42.2722 263.02 41.7841 263.978 41.4126C264.933 41.0131 266.012 40.7739 267.214 40.695C268.806 40.5904 270.221 40.7781 271.46 41.258C272.696 41.71 273.783 42.2419 274.721 42.8538L272.197 46.7234C271.406 46.2142 270.637 45.8297 269.891 45.5701C269.144 45.3104 268.408 45.2045 267.681 45.2522C266.116 45.3549 265.37 45.9511 265.441 47.0407C265.463 47.376 265.595 47.662 265.835 47.8988C266.073 48.1077 266.38 48.298 266.756 48.4697C267.16 48.6396 267.606 48.8067 268.094 48.9711C268.608 49.1057 269.136 49.2534 269.68 49.4141C270.367 49.6216 271.043 49.8718 271.708 50.1649C272.398 50.4282 273.025 50.7799 273.587 51.2201C274.177 51.6583 274.662 52.2157 275.043 52.8922C275.423 53.5408 275.644 54.34 275.706 55.29C275.768 56.2399 275.645 57.1319 275.335 57.966C275.025 58.8001 274.526 59.5484 273.84 60.2108C273.152 60.8452 272.29 61.3789 271.252 61.8118C270.212 62.2168 268.994 62.4652 267.597 62.5569Z" fill="black"/>
<path d="M281.779 51.3977L280.057 38.6311L279.481 33.0709L285.684 32.6636L285.841 38.2514L285.802 51.1335L281.779 51.3977ZM284.459 61.4497C283.398 61.5194 282.48 61.2149 281.706 60.5361C280.958 59.8276 280.548 58.9285 280.476 57.8389C280.403 56.7213 280.692 55.7764 281.342 55.0041C282.019 54.202 282.889 53.7661 283.95 53.6964C285.012 53.6267 285.917 53.9461 286.665 54.6546C287.439 55.3333 287.863 56.2315 287.936 57.3491C288.008 58.4387 287.705 59.3846 287.028 60.1867C286.377 60.959 285.521 61.38 284.459 61.4497Z" fill="black"/>
<path d="M317.586 148.567C317.586 148.567 319.282 148.437 320.325 146.872C321.369 145.308 321.238 142.304 321.238 142.304L317.716 142.956L317.586 148.567Z" fill="#6D6246"/>
<path d="M316.541 146.606C316.541 146.606 317.976 146.866 319.15 145.302C320.324 143.738 321.629 142.564 321.237 141.782C320.846 141 317.715 140.087 317.057 140.348C316.405 140.609 316.014 143.086 316.014 143.086L316.541 146.606Z" fill="#DCB65E"/>
<path d="M322.679 143.216C322.679 143.216 319.679 144.52 320.331 146.872C320.983 149.219 321.114 150.132 321.114 150.132C321.114 150.132 318.374 153.651 319.418 155.352C320.461 157.047 319.922 160.146 320.461 161.224C321.114 162.528 322.809 163.571 322.809 163.571L323.461 142.564L322.679 143.216Z" fill="#6D6246"/>
<path d="M323.723 147.393C323.723 147.393 322.157 147.915 322.157 146.22C322.157 144.525 322.157 143.091 323.462 142.564C324.766 142.043 325.418 143.346 325.418 143.346L323.723 147.393Z" fill="#DCB65E"/>
<path d="M323.461 157.046C323.461 157.046 320.983 157.177 321.374 155.482C321.765 153.787 323.591 152.614 323.591 152.614C323.591 152.614 321.896 152.093 321.896 149.616C321.896 147.139 323.722 146.617 323.722 146.617L325.026 148.703L325.157 152.881L323.461 157.046Z" fill="#DCB65E"/>
<path d="M321.114 159.523C320.918 159.162 320.983 157.438 322.549 157.177C324.114 156.916 324.867 159.606 324.897 160.436C324.974 162.646 322.294 161.704 321.114 159.523Z" fill="#DCB65E"/>
<path d="M61.3145 149.87L64.6763 149.805L66.793 151.962L67.2199 154.439C67.2199 154.439 66.959 155.221 65.6546 154.439C64.3502 153.657 63.5972 152.875 63.5972 152.875C63.5972 152.875 66.3365 156.495 64.2257 158.35C64.3502 159.926 64.3858 161.378 64.1842 161.977C63.6624 163.541 62.3224 164.519 62.3224 164.519L61.8303 159.79L61.3145 149.87Z" fill="#6D6246"/>
<path d="M59.4877 159.784L60.7921 161.609C60.7921 161.609 62.0965 162.392 63.14 160.566C64.1836 158.741 62.6183 157.177 62.6183 157.177C62.6183 157.177 63.6974 157.633 64.48 155.808C65.2627 153.983 63.14 151.956 63.14 151.956C63.14 151.956 63.9227 150.653 63.4009 149.349C62.8792 148.045 59.6359 146.511 59.6359 146.511L58.96 154.564L59.4877 159.784Z" fill="#010101"/>
<path d="M66.0163 152.739C66.0163 152.739 63.3422 150.777 65.204 148.235C67.0598 145.693 68.1033 146.997 68.1033 146.997L68.3642 151.435L66.0163 152.739Z" fill="#010101"/>
<path d="M247.764 183.499C247.764 183.499 246.572 185.501 244.722 189.389C242.872 193.276 239.575 197.264 239.623 201.145C239.652 203.569 238.947 205.518 238.081 207.148C237.239 208.73 235.579 209.37 235.579 209.37" stroke="#45C4D2" stroke-width="2" stroke-miterlimit="10" stroke-linecap="round" stroke-linejoin="round"/>
<path opacity="0.47" d="M244.675 160.697C244.805 160.892 244.414 161.805 246.24 162C248.066 162.196 249.175 159.132 249.24 157.757C249.264 157.289 250.088 152.407 250.088 152.407L251.392 152.863C251.392 152.863 254.653 149.799 256.029 145.752C256.094 144.579 256.29 142.031 256.29 142.031C256.29 142.031 251.719 144.508 251.327 143.66C250.936 142.813 247.082 148.632 247.082 148.632L243.69 155.405L244.675 160.697Z" fill="url(#paint6_linear_2435_4093)"/>
<path d="M248.486 140.295C245.682 141.912 242.522 143.637 240.061 148.312C237.606 152.987 236.551 161.674 241.116 160.667C245.676 159.666 244.626 151.986 247.081 148.644C249.536 145.302 256.36 142.446 256.36 142.446L257.801 137.48C257.801 137.48 251.297 138.677 248.486 140.295Z" fill="url(#paint7_linear_2435_4093)"/>
<path opacity="0.48" d="M240.328 156.987C240.381 152.519 242.142 148.099 245.154 144.875C248.167 141.652 252.4 139.655 256.752 139.412C256.639 139.501 256.515 139.447 256.396 139.536" stroke="#CA717F" stroke-miterlimit="10" stroke-linecap="round" stroke-linejoin="round"/>
<path d="M275.938 168.661C275.938 168.661 281.553 167.488 283.249 165.923C284.945 164.359 285.206 162.664 285.206 162.664C285.206 162.664 286.902 165.271 286.38 166.451C285.858 167.624 271.628 171.019 271.628 171.019L272.802 169.976L275.938 168.661Z" fill="#745C98"/>
<path opacity="0.47" d="M290.169 103.289C291.473 98.7203 293.626 90.3058 293.495 88.8718C293.365 87.4378 292.908 87.3726 290.691 86.3297C288.473 85.2868 278.417 83.3313 277.896 83.3313C277.374 83.3313 275.678 85.8083 274.237 87.5089C272.797 89.2096 271.984 90.2821 273.028 90.5429C274.071 90.8036 276.977 90.6436 276.977 90.6436L276.585 93.3813C276.585 93.3813 275.803 92.3384 274.629 92.0776C273.455 91.8169 268.753 92.208 268.753 92.208L268.622 90.2525L270.057 90.774L270.188 86.5964L268.326 86.5312C268.326 86.5312 268 84.315 267.348 82.6143C266.695 80.9196 264.181 79.1597 264.181 79.1597L253.936 79.9774L255.566 80.4692C255.566 80.4692 249.951 80.2085 248.256 81.1211C246.56 82.0336 242.249 85.2987 242.249 85.2987C242.249 85.2987 240.423 85.429 238.988 85.5594C237.553 85.6898 231.025 88.5578 231.025 88.5578C231.025 88.5578 230.243 89.2096 229.851 90.6436C229.46 92.0776 230.373 95.0819 230.373 95.0819L234.162 92.9961L235.591 100.018C235.579 100.024 235.549 100.054 235.472 100.16C238.692 99.4788 242.172 99.7099 245.333 100.196C249.981 100.913 254.624 102.323 258.845 104.409C259.503 104.735 260.126 105.156 260.754 105.541C261.377 105.92 261.994 106.299 262.61 106.684C263.891 107.484 265.154 108.302 266.405 109.144C268.854 110.797 271.237 112.545 273.52 114.429C278.103 118.21 282.23 122.559 285.509 127.531C285.977 128.242 286.44 128.953 286.896 129.664C285.995 125.866 283.113 114.257 283.113 114.257C283.113 114.257 284.939 113.084 285.983 112.172C287.038 111.247 288.865 107.858 290.169 103.289ZM246.109 98.661C245.925 98.9692 245.836 95.1649 245.617 94.0627C245.421 93.0731 244.295 90.6081 244.58 90.6436C244.829 90.5429 245.854 90.8925 246.103 90.928C246.649 91.0051 249.121 91.5028 250.117 91.6095C250.438 91.6451 246.993 94.8449 246.109 98.661Z" fill="url(#paint8_linear_2435_4093)"/>
<defs>
<linearGradient id="paint0_linear_2435_4093" x1="191.002" y1="262.862" x2="191.002" y2="0.998914" gradientUnits="userSpaceOnUse">
<stop stop-color="#BCE5E4" stop-opacity="0"/>
<stop offset="1" stop-color="#BCE5E4"/>
</linearGradient>
<linearGradient id="paint1_linear_2435_4093" x1="246.05" y1="150.107" x2="270.634" y2="107.501" gradientUnits="userSpaceOnUse">
<stop offset="0.112" stop-color="#745141"/>
<stop offset="1"/>
</linearGradient>
<linearGradient id="paint2_linear_2435_4093" x1="240.496" y1="134.653" x2="248.753" y2="134.653" gradientUnits="userSpaceOnUse">
<stop offset="0.00240252" stop-color="#CCBFB9"/>
<stop offset="0.2759" stop-color="#918883"/>
<stop offset="0.7762" stop-color="#292725"/>
<stop offset="1"/>
</linearGradient>
<linearGradient id="paint3_linear_2435_4093" x1="247.53" y1="116.294" x2="263.264" y2="89.0258" gradientUnits="userSpaceOnUse">
<stop offset="0.00240252" stop-color="#CCBFB9"/>
<stop offset="0.2759" stop-color="#918883"/>
<stop offset="0.7762" stop-color="#292725"/>
<stop offset="1"/>
</linearGradient>
<linearGradient id="paint4_linear_2435_4093" x1="276.418" y1="90.7821" x2="290.047" y2="90.7821" gradientUnits="userSpaceOnUse">
<stop offset="0.0103" stop-color="#A58E84"/>
<stop offset="1"/>
</linearGradient>
<linearGradient id="paint5_linear_2435_4093" x1="233.852" y1="93.1543" x2="243.286" y2="93.1543" gradientUnits="userSpaceOnUse">
<stop offset="0.0103" stop-color="#A58E84"/>
<stop offset="1"/>
</linearGradient>
<linearGradient id="paint6_linear_2435_4093" x1="244.004" y1="161.031" x2="255.294" y2="141.465" gradientUnits="userSpaceOnUse">
<stop offset="0.00240252" stop-color="#CCBFB9"/>
<stop offset="0.2759" stop-color="#918883"/>
<stop offset="0.7762" stop-color="#292725"/>
<stop offset="1"/>
</linearGradient>
<linearGradient id="paint7_linear_2435_4093" x1="239.453" y1="160.526" x2="254.011" y2="135.295" gradientUnits="userSpaceOnUse">
<stop stop-color="#D0828E"/>
<stop offset="0.2496" stop-color="#CC7F8C"/>
<stop offset="0.5002" stop-color="#C07586"/>
<stop offset="0.7504" stop-color="#AC657D"/>
<stop offset="1" stop-color="#904F6F"/>
</linearGradient>
<linearGradient id="paint8_linear_2435_4093" x1="256.908" y1="112.516" x2="276.756" y2="78.1178" gradientUnits="userSpaceOnUse">
<stop offset="0.00422412" stop-color="#BCACA4"/>
<stop offset="0.0587" stop-color="#AE9F97"/>
<stop offset="0.3064" stop-color="#706762"/>
<stop offset="0.5331" stop-color="#403A38"/>
<stop offset="0.7315" stop-color="#1D1B19"/>
<stop offset="0.8939" stop-color="#080707"/>
<stop offset="1"/>
</linearGradient>
</defs>
</svg>
